<?xml version="1.0" encoding="utf-8"?>
<!-- Generator: Adobe Illustrator 20.0.0, SVG Export Plug-In . SVG Version: 6.00 Build 0)  -->
<svg version="1.1" id="Layer_1" xmlns="http://www.w3.org/2000/svg" xmlns:xlink="http://www.w3.org/1999/xlink" x="0px" y="0px"
	 viewBox="0 0 1002.7 789.1" style="enable-background:new 0 0 1002.7 789.1;" xml:space="preserve">
<style type="text/css">
	.st0{fill:none;stroke:#4D4D4D;stroke-width:2;stroke-linecap:round;stroke-linejoin:round;stroke-miterlimit:10;}
	.st1{fill:#4D4D4D;}
	.st2{fill:#F9F9F9;}
	.st3{fill:#323232;}
	.st4{font-family:'Roboto-Medium';}
	.st5{font-size:70px;}
	.st6{letter-spacing:1;}
	.st7{letter-spacing:2;}
	.st8{letter-spacing:3;}
	.st9{letter-spacing:-1;}
</style>
<g>
	<g>
		<path class="st0" d="M425.1,344.6c13.8,3.6,31.5,1.7,39-12.1c1.6-3,2.5-6.3,2.7-9.6c0.3-4.4-0.1-9.4-2.4-13.3
			c-2.9-4.8-8.8-5.9-13-1.9c-4,3.8-4.7,9.5-6.7,14.4c-2.2,5.4-5.6,10.7-9.9,14.6C432.8,338.7,426.5,343.8,425.1,344.6z"/>
		<path class="st0" d="M437.4,334.2c-3.7-2.6-6.2-5.5-8.5-9.4c-3.8-6.3-7.5-15.6-16.5-14.3c-3.7,0.6-6.2,3.3-6.6,7.1
			c-1.4,11.8,9.7,22.2,19.3,27"/>
		<path class="st0" d="M433.2,346.2l0.7,6.8c0.3,3.1,3.1,5.3,6.2,5c3.1-0.3,5.3-3.1,5-6.2l-0.6-6.2"/>
		<path class="st0" d="M423.3,315.7c-0.5-9,4.3-14.5,7.7-17.3c2-1.6,4.7-2,7-0.8c3.7,1.8,9,5.9,10.4,14.6"/>
		<path class="st0" d="M422.4,277.5c1.6-3.2,3.8-5.5,5.7-7c2-1.6,4.7-2,7-0.8c2.1,1.1,4.8,2.9,7,5.9"/>
		<path class="st0" d="M434.4,296.9l-1.3-12.2c0,0,3.4-8.7,10.2-9.4c6.8-0.7,11.2,8.7,11.9,15.5"/>
		<path class="st0" d="M433.1,284.7c0,0-5.2-7.8-11.9-7.1c-6.8,0.7-9.2,10.5-8.5,17.3"/>
		<path class="st0" d="M442,300.2c0,0,2.2-9.3,8.4-10c6.2-0.6,11.6,2.9,13.2,18.2"/>
		<path class="st0" d="M427.3,301.7c0,0-4.1-8.7-10.3-8c-6.2,0.6-10.9,4-9.3,19.4"/>
		<path class="st0" d="M571.5,198.8c0.8-0.5,4.6,1.4,6.6,1.8c7.6,1.5,15.5-4.7,18.7-11.1c3.4-6.8,3.4-14.9,1.7-22.1
			c-0.1-0.6-0.3-1.1-0.4-1.7c-4.2-15.5-16.1-28.4-30.6-22.4c-6.3,2.6-6.2,8-8.7,8.7c-2.5,0.7-5.4-4.2-11.9-3.1
			c-15.5,2.5-19.3,19.2-15.2,34.7c0.2,0.6,0.3,1.1,0.5,1.7c2.2,7.1,6.2,14.1,12.6,18.3c6,3.9,16,5.2,21.7,0.1
			C568.2,202.3,570.6,198.8,571.5,198.8z"/>
		<path class="st0" d="M557.7,132.3c-0.5,0.1-5.6,1.4,1.2,19.7"/>
		<line class="st0" x1="567.3" y1="168.1" x2="570.4" y2="179.3"/>
		<line class="st0" x1="559.6" y1="170.2" x2="562.6" y2="181.4"/>
		<path class="st0" d="M908.7,468.9c0.8-0.5,4.6,1.4,6.6,1.8c7.6,1.5,15.5-4.7,18.7-11.1c3.4-6.8,3.4-14.9,1.7-22.1
			c-0.1-0.6-0.3-1.1-0.4-1.7c-4.2-15.5-16.1-28.4-30.6-22.4c-6.3,2.6-6.2,8-8.7,8.7h0c-2.5,0.7-5.4-4.2-11.9-3.1
			c-15.5,2.5-19.3,19.2-15.2,34.7c0.2,0.6,0.3,1.1,0.5,1.7c2.2,7.1,6.2,14.1,12.6,18.3c6,3.9,16,5.2,21.7,0.1
			C905.4,472.4,907.7,468.9,908.7,468.9z"/>
		<path class="st0" d="M894.8,402.4c-0.5,0.1-5.6,1.4,1.2,19.7"/>
		<line class="st0" x1="904.5" y1="438.2" x2="907.5" y2="449.4"/>
		<line class="st0" x1="896.7" y1="440.3" x2="899.7" y2="451.5"/>
		<path class="st0" d="M324.3,150.5c0.4-2.6,1.3-4.7,2.2-6c0.9-1.5,2.6-2.1,4.2-1.5c1.5,0.5,3.5,1.6,5.5,3.6"/>
		<path class="st0" d="M374.5,182.3c-4.5-13.3-21.3-19.5-37.4-14c-16.1,5.5-25.5,20.8-21,34c4,11.7,17.4,17.9,31.6,15.5
			c0.1,0.6,0.3,1.3,0.5,1.9c1,2.8,2.6,4.8,3.7,4.5c1.1-0.4,1.2-3,0.2-5.8c-0.2-0.5-0.4-1-0.6-1.4c0.7-0.2,1.3-0.4,2-0.6
			c0.8-0.3,1.7-0.6,2.5-1c0.1,0.5,0.2,1,0.4,1.5c1,2.8,2.6,4.8,3.7,4.5c1.1-0.4,1.2-3,0.2-5.8c-0.2-0.7-0.5-1.3-0.8-1.9
			C371.9,206.7,378.4,193.8,374.5,182.3z"/>
		<path class="st0" d="M337,168.2c-0.7-3.7-0.3-8.1,1.7-11.4c1.3-2.2,3.6-3.6,5.9-4.6c2-0.9,5.8-1.6,7.1,0.9
			c0.6,1.1,0.3,2.7-0.2,3.7c-0.6,1.1-1.5,2.1-2.5,2.8c-1.1,0.9-2.3,1.6-3.4,2.5c-1.5,1.3-3.5,2.8-4.4,4.6"/>
		<path class="st0" d="M337,168.2c-1.7-3.4-4.7-6.6-8.3-8c-2.4-0.9-5.1-0.7-7.5,0c-2.1,0.6-5.6,2.3-5,5c0.2,1.2,1.4,2.3,2.5,2.8
			c1.2,0.5,2.5,0.7,3.7,0.7c1.4,0,2.8-0.2,4.2-0.1c2,0.1,4.5,0.1,6.3,1"/>
		<path class="st0" d="M335.7,164.2c-0.7-3.7-2-12.9,0-16.2c1.3-2.2,3.6-3.6,5.9-4.6c2-0.9,5.8-1.6,7.1,0.9c0.6,1.1,0.3,2.7-0.2,3.7
			c-0.6,1.1-1.5,2.1-2.5,2.8c-1.1,0.9-2.3,1.6-3.4,2.5c-1.5,1.3-3.5,2.8-4.4,4.6"/>
		<path class="st0" d="M335.7,164.2c-1.7-3.4-6.4-11.4-9.9-12.8c-2.4-0.9-5.1-0.7-7.5,0c-2.1,0.6-5.6,2.3-5,5
			c0.2,1.2,1.4,2.3,2.5,2.8c1.2,0.5,2.5,0.7,3.7,0.7c1.4,0,2.8-0.2,4.2-0.1c2,0.1,4.5,0.1,6.3,1"/>
		<path class="st0" d="M225.2,48.3c-0.3-0.7-0.8-1.4-1.4-1.9c-3.9-3.6-8.7-6.4-13.7-8c-2.9-0.9-5.9-1.3-9-0.9
			c-3.3,0.4-5.9,1.7-8.6,3.3c-3.8,2.3-7.5,5-10.9,7.9c-5.7,4.8-10.8,9.6-11.3,17c-0.3,4.8,0.8,10.6,5.5,17
			c4.6,6.4,9.8,9.3,14.5,10.4c7.2,1.8,13.3-1.6,19.6-5.5c3.8-2.4,7.5-5,10.9-7.9c2.4-2.1,4.5-4.1,5.8-7.2c1.2-2.8,1.8-5.8,1.9-8.8
			C228.6,58.6,227.4,53.1,225.2,48.3z"/>
		<line class="st0" x1="219.8" y1="43.3" x2="214.8" y2="84.5"/>
		<line class="st0" x1="205.5" y1="37.6" x2="197.1" y2="93.4"/>
		<line class="st0" x1="188.8" y1="44.2" x2="181.5" y2="88.8"/>
		<line class="st0" x1="172.5" y1="77.2" x2="214.8" y2="84.5"/>
		<line class="st0" x1="171.4" y1="61" x2="227.8" y2="69.4"/>
		<line class="st0" x1="184.8" y1="47.1" x2="227.1" y2="53.6"/>
		<path class="st0" d="M225.4,47.8c4.9-1.7,10.3-0.5,14.8,1.8c2.3,1.2,4.5,2.6,6.4,4.4c8.5,8.1,0.8,4.6-1.1,3.8
			c-4.6-2-12.4-1.8-16.9,1.6"/>
		<path class="st0" d="M224.4,46.4c3.1-4.2,3.7-9.6,2.8-14.6c-0.4-2.6-1.1-5.1-2.2-7.4c-5-10.6-4.1-2.2-3.9-0.1
			c0.4,5-2.1,12.3-6.7,15.6"/>
		<path class="st0" d="M226.8,28.6c4.6-3.1,2.7-14.9,6.4-5.6c0.7,1.8,1.3,3.7,1.6,5.6c0.6,3.8,0.1,9.9-2.3,13
			c3.7-1.3,9.7,0,13.1,1.8c1.7,0.9,3.3,2.1,4.8,3.3c7.7,6.3-2.9,0.9-7.3,4.3"/>
		<path class="st0" d="M235.2,29.6c0,0,5.3-5.6,6.9-10.3c1.7-4.7,4.4,9.6-1.5,16.4c8.3-3.6,21.2,3.8,16.2,3.9c-5,0.1-12,3.4-12,3.4"
			/>
		<line class="st0" x1="240.7" y1="35.7" x2="225" y2="47"/>
		<path class="st0" d="M622.9,283.5c-1.6,0.2-3.2,0.4-4.8,0.5c-3.4,0.2-6.9-0.1-10.3-0.7c-6.3-1.1-12.8-0.5-18.9,1.6
			c-4.2,1.4-8.2,3.6-11.5,6.6c-3.9,3.5-6.6,8-8.2,13c-2.2,6.8-2.2,14-1.4,21c0,0,1.2,9.1,0.9,12.6c0,0.5,0.4,0.9,0.9,0.9
			c3.5-0.3,12.7,0.9,12.7,0.9c1.3,0.2,2.6,0.3,4,0.4c6.6,0.4,13.4-0.1,19.5-2.7c4.6-1.9,8.7-4.9,11.8-8.7c1.5-1.9,2.8-4,3.9-6.2
			c1.8-3.8,3-7.9,3.5-12.1c0.5-4.1,0.1-8.1-0.6-12.1c-0.4-2.2-0.7-5.8-0.7-8c0-2,0.1-4,0.3-6C623.9,283.9,623.4,283.4,622.9,283.5z"
			/>
		<path class="st0" d="M583.8,332.6c0.2,0.1,11.5,4,20.4-2.3"/>
		<path class="st1" d="M590.6,311c1.9,0,1.9-3,0-3C588.6,308,588.6,311,590.6,311"/>
		<path class="st1" d="M600.1,305.6c1.9,0,1.9-3,0-3C598.2,302.6,598.2,305.6,600.1,305.6"/>
		<path class="st1" d="M602.6,299.1c1.9,0,1.9-3,0-3C600.7,296.1,600.7,299.1,602.6,299.1"/>
		<path class="st1" d="M611.2,296c1.9,0,1.9-3,0-3C609.3,293,609.3,296,611.2,296"/>
		<path class="st1" d="M592.4,299.2c1.9,0,1.9-3,0-3C590.5,296.2,590.5,299.2,592.4,299.2"/>
		<path class="st1" d="M584.9,303.5c1.9,0,1.9-3,0-3C582.9,300.5,582.9,303.5,584.9,303.5"/>
		<path class="st1" d="M588.2,293.3c1.9,0,1.9-3,0-3C586.3,290.3,586.3,293.3,588.2,293.3"/>
		<path class="st1" d="M600.2,292c1.9,0,1.9-3,0-3C598.3,289,598.3,292,600.2,292"/>
		<path class="st0" d="M8.8,237.1c0.2,1.6,0.4,3.2,0.5,4.8c0.2,3.4-0.1,6.9-0.6,10.3c-1,6.3-0.4,12.8,1.8,18.9
			c1.5,4.2,3.7,8.1,6.7,11.4c3.5,3.8,8.1,6.5,13.1,8.1c6.8,2.1,14.1,2.1,21.1,1.2c0,0,9.1-1.3,12.6-1c0.5,0,0.9-0.4,0.8-0.9
			c-0.4-3.5,0.8-12.7,0.8-12.7c0.1-1.3,0.3-2.6,0.3-4c0.3-6.6-0.3-13.4-2.9-19.5c-1.9-4.6-4.9-8.6-8.9-11.7c-1.9-1.5-4-2.8-6.3-3.8
			c-3.8-1.8-7.9-2.9-12.1-3.3c-4.1-0.4-8.1,0-12.1,0.7c-2.2,0.4-5.8,0.8-8,0.8c-2,0-4-0.1-6-0.3C9.2,236.1,8.7,236.6,8.8,237.1z"/>
		<path class="st0" d="M58.3,275.7c0.1-0.2,3.9-11.6-2.5-20.4"/>
		<path class="st1" d="M35.1,270.7c1.9,0,1.9-3,0-3C33.2,267.7,33.2,270.7,35.1,270.7"/>
		<path class="st1" d="M29.6,261.2c1.9,0,1.9-3,0-3C27.7,258.2,27.7,261.2,29.6,261.2"/>
		<path class="st1" d="M23.1,258.8c1.9,0,1.9-3,0-3C21.2,255.8,21.2,258.8,23.1,258.8"/>
		<path class="st1" d="M19.9,250.2c1.9,0,1.9-3,0-3C18,247.2,18,250.2,19.9,250.2"/>
		<path class="st1" d="M23.3,269c1.9,0,1.9-3,0-3C21.4,266,21.4,269,23.3,269"/>
		<path class="st1" d="M27.7,276.4c1.9,0,1.9-3,0-3C25.8,273.4,25.8,276.4,27.7,276.4"/>
		<path class="st1" d="M17.5,273.2c1.9,0,1.9-3,0-3C15.6,270.2,15.6,273.2,17.5,273.2"/>
		<path class="st1" d="M16,261.2c1.9,0,1.9-3,0-3C14.1,258.2,14.1,261.2,16,261.2"/>
		<path class="st0" d="M628.7,59.5c-0.3-0.6-11.9-15.1-0.3-22.1c0,0,7.2-4.7,15.6,8.1c1.3,2,2.9,3.9,4.5,5.7
			c2.2,2.4,5.2,5.2,7.7,6.2c8.6,3.5,27,26.9,7.6,46.2c0,0-12.6,6.4-26.3-3.7c-6.1-4.6-10.3-11.2-12.5-18.5
			c-1.3-4.3-2.1-9.2-1.2-13.2c0,0-11.4-17.3-5.4-22.9"/>
		<path class="st0" d="M658.3,76c0,0,9.1,11.8,4.3,25.3"/>
		<path class="st0" d="M641.3,86.2c0,0,6.2,13.6,20.4,15.5"/>
		<path class="st0" d="M619.4,38.7c-1.1-1.9-0.5-4.3,1.3-5.4c1.9-1.1,4.3-0.5,5.4,1.4l1.8,3"/>
		<path class="st0" d="M838.5,128.3c0,0,41.2-23.6,18-47.7c-4.5-4.7-10.5-8.9-17.2-9c-11.6-0.2-20.7,10.7-22.6,21.5
			C813.8,109.1,825.5,121.1,838.5,128.3z"/>
		<path class="st0" d="M856.5,80.7c0,0,30.4,8.7,13.8,30.7c-12.2,16.2-31.8,17-31.8,17"/>
		<path class="st0" d="M855.6,79.4c3.6-12.7-3-20.2-3-20.2"/>
		<path class="st0" d="M855.6,79.4c17.4-2.1,17.5-14,17.5-14s-9.7-5.3-16.5,9.3"/>
		<path class="st0" d="M80.5,476.2c0,0,12.5-45.9-21-46.4c-6.5-0.1-13.7,1.1-18.6,5.8c-8.4,8.1-7.1,22.2-0.8,31.2
			C49.4,480.1,66.2,480.3,80.5,476.2z"/>
		<path class="st0" d="M59.5,429.8c0,0,27.7-15.3,31.4,12c2.8,20.1-10.5,34.5-10.5,34.5"/>
		<path class="st0" d="M58,429.5c-6.4-11.5-16.4-12.1-16.4-12.1"/>
		<path class="st0" d="M58,429.5c10.8-13.8,2.5-22.3,2.5-22.3s-10.6,3.1-5.1,18.3"/>
		<polygon class="st0" points="698.6,274.1 750,294.7 795,233.5 743.6,212.8 		"/>
		<polyline class="st0" points="795,233.5 795.8,250.4 785.6,246.3 		"/>
		<polygon class="st2" points="750,294.7 749.6,282.7 698.2,262.1 698.6,274.1 		"/>
		<polygon class="st0" points="750,294.7 749.6,282.7 698.2,262.1 698.6,274.1 		"/>
		<line class="st0" x1="745.5" y1="228.9" x2="762.6" y2="235.8"/>
		<line class="st0" x1="739.7" y1="236.5" x2="756.7" y2="243.4"/>
		<line class="st0" x1="733.8" y1="244.2" x2="750.8" y2="251"/>
		<line class="st0" x1="727.9" y1="251.8" x2="745" y2="258.6"/>
		<path class="st1" d="M768.6,238c1.1-0.7,2.3-1.3,3.4-2c-0.4-0.3-0.7-0.6-1.1-0.8c-0.3,1.3-1.9,4.7,0.2,5.5
			c0.8,0.3,1.7-0.1,2.5-0.3c1.9-0.5,3.8-0.7,5.7-0.7c1,0,1-1.5,0-1.5c-1.7,0-3.4,0.1-5,0.4c-0.7,0.2-2.1,0.9-2.7,0.1
			c-0.2-0.4,0.6-2.6,0.7-3.1c0.1-0.6-0.5-1.2-1.1-0.8l-3.4,2C767,237.2,767.8,238.5,768.6,238"/>
		<path class="st1" d="M762,246.4c1.4,0,1.4,0.9,2.3,1.5c0.5,0.3,0.8,0.2,1.4,0.2c1,0.1,1.7,0.7,2.6,1.2c0.9,0.5,1.9,0.8,2.9,1
			c0.9,0.2,1.3-1.2,0.4-1.4c-1.4-0.3-2.7-0.9-3.9-1.7c-0.7-0.5-1-0.8-1.8-0.8c-0.5,0-0.3,0.4-1,0c-0.4-0.2-0.6-0.7-1-1
			c-0.6-0.4-1.2-0.5-1.9-0.5C761,245,761,246.5,762,246.4"/>
		<path class="st1" d="M755.2,252.4c-0.2,0.9,0.6,3,1.3,3.5c1,0.7,1.7-0.3,2.6-0.5c0.8-0.2,0.5,0,1.1,0.5c0.6,0.5,0.9,0.4,1.6,0.5
			c0.8,0.1,1.2,0,1.8,0.5c0.3,0.3,0.5,0.7,0.8,1c0.6,0.6,1.1,0.9,2,0.9c1,0.1,1-1.4,0-1.5c-1.4-0.1-1.8-2.4-3.3-2.6
			c-0.9-0.1-1.1,0.3-2.1-0.2c-0.4-0.2-0.4-0.6-0.8-0.7c-0.7-0.2-1.4,0.2-2,0.5c-0.2,0.1-0.5,0.2-0.7,0.3c-0.3,0.2-0.4,0.1-0.3-0.3
			c-0.1-0.1-0.5-1.6-0.6-1.5C756.9,251.9,755.5,251.5,755.2,252.4"/>
		<path class="st1" d="M751,262.7c-0.3,0-0.6-0.1-0.9-0.3C749.4,262.1,749.7,262.2,751,262.7c0.6,0.2,1.4-0.2,2,0.2
			c0.8,0.6,0.2,0.1,0.3,0.9c0.1,0.4,0,0.6,0.1,0.9c0.6,1.6,2.4,1.3,3.7,0.8c-0.3-0.2-0.6-0.3-0.9-0.5c0.4,1.4,1.5,2.2,3,2.2
			c1,0,1-1.5,0-1.5c-0.5-0.4-1-0.7-1.5-1.1c-0.1-0.4-0.5-0.7-0.9-0.5c-0.5,0.2-1.5,0-1.7-0.6c0-0.1,0.2-0.6,0.1-0.8
			c0-0.4-0.2-0.7-0.4-0.9c-1-0.9-3.4-0.6-4.6-0.3c-0.7,0.1-1.8,0.4-1.7,1.4c0.1,1,1.5,1.3,2.2,1.4C751.6,264.3,752,262.9,751,262.7"
			/>
		<polygon class="st0" points="221.5,346.8 178,312.5 208.8,243 252.3,277.3 		"/>
		<polyline class="st0" points="208.8,243 193.8,250.7 202.4,257.5 		"/>
		<polygon class="st2" points="178.1,312.5 188.7,306.9 232.1,341.2 221.5,346.8 		"/>
		<polygon class="st0" points="178.1,312.5 188.7,306.9 232.1,341.2 221.5,346.8 		"/>
		<line class="st0" x1="237.4" y1="283.7" x2="223" y2="272.3"/>
		<line class="st0" x1="233.7" y1="292.5" x2="219.3" y2="281.2"/>
		<line class="st0" x1="230" y1="301.4" x2="215.6" y2="290"/>
		<line class="st0" x1="226.3" y1="310.3" x2="211.9" y2="298.9"/>
		<path class="st1" d="M219.5,268.2c0-1.3,0-2.6,0-3.9c0-0.7-0.8-1-1.3-0.5c-0.6,0.5-1.4,1.6-2.1,2c-1.2,0.6-1.1-0.9-1.4-1.8
			c-0.5-1.7-1.3-3.4-2.2-4.9c-0.5-0.8-1.8-0.1-1.3,0.8c0.9,1.5,1.7,3.1,2.2,4.8c0.2,0.9,0.3,2,1,2.7c1.7,1.6,3.9-1.5,4.9-2.5
			l-1.3-0.5c0,1.3,0,2.6,0,3.9C218,269.1,219.5,269.1,219.5,268.2"/>
		<path class="st1" d="M215.3,277.3c-0.3-0.6-0.8-1.2-1.5-1.4c-0.4-0.2-1-0.1-1.3-0.3c-0.5-0.3-0.2-0.4-0.4-0.8
			c-0.4-0.8-1.2-0.9-1.9-1.3c-1.2-0.6-2.2-1.4-3.1-2.3c-0.7-0.7-1.7,0.4-1.1,1.1c0.6,0.7,1.3,1.3,2.1,1.8c0.9,0.6,2.1,0.9,2.6,1.8
			c0.3,0.5,0.3,0.8,0.8,1.1c0.9,0.5,1.9,0.2,2.4,1.3C214.4,278.9,215.7,278.2,215.3,277.3"/>
		<path class="st1" d="M211,286c0.2-0.5,0.2-0.1-0.3-0.1c-0.3,0-0.6,0.2-1,0.2c-0.7,0-0.5,0.2-0.6-0.7c-0.1-0.8,0-1.7-0.8-2.2
			c-0.6-0.4-1.1-0.1-1.6-0.8c-0.3-0.4-0.3-0.9-0.7-1.3c-1-1-3.1-0.3-3.8-1.4c-0.5-0.8-1.8-0.1-1.3,0.8c0.4,0.6,0.8,0.9,1.4,1.2
			c0.4,0.1,0.7,0.1,1.1,0.2c1.1,0.3,1.2,0.5,1.8,1.4c0.3,0.5,0.4,0.9,1,1.1c0.8,0.3,0.9-0.1,1.2,0.8c0.4,1-0.2,2.3,1.4,2.6
			c0.7,0.1,3-0.1,3.3-0.9C212.8,285.9,211.5,285.1,211,286"/>
		<path class="st1" d="M204.3,296.7c0.5,0.6,1.5,1.6,2.4,1.2c1-0.5,0.5-1.8,0.2-2.5c-0.4-1.1-1.2-2.5-2.1-3.2
			c-0.5-0.3-0.7-0.4-1.3-0.2c-0.1,0.1-0.2,0.1-0.3,0.2c-0.5,0.4-1.4,2.1-1.8-0.6c-0.1-0.5-0.4-0.9-0.9-0.7c-0.8,0.2-1.4,0-1.7-0.8
			c-0.5-0.8-1.8-0.1-1.3,0.8c0.7,1.3,2,1.8,3.4,1.4l-0.9-0.7c0.2,1.3,0.6,3.1,2.3,3c0.7,0,1-0.7,1.5-0.9c0.5-0.1,2.4,2.5,2,3.2
			c0.2-0.1,0.4-0.2,0.6-0.4c-0.3,0-0.8-0.7-1-0.9C204.7,294.9,203.7,296,204.3,296.7"/>
		<polygon class="st0" points="483,93.1 427.9,99.5 400.6,28.6 455.6,22.2 		"/>
		<polyline class="st0" points="400.6,28.6 395.4,44.7 406.3,43.4 		"/>
		<polygon class="st2" points="428,99.5 431.5,88.1 486.5,81.6 483,93.1 		"/>
		<polygon class="st0" points="428,99.5 431.5,88.1 486.5,81.6 483,93.1 		"/>
		<line class="st0" x1="449.6" y1="37.2" x2="431.3" y2="39.4"/>
		<line class="st0" x1="453.2" y1="46.1" x2="435" y2="48.2"/>
		<line class="st0" x1="456.9" y1="55" x2="438.6" y2="57.1"/>
		<line class="st0" x1="460.5" y1="63.9" x2="442.3" y2="66"/>
		<path class="st1" d="M425.9,38.9c-0.9-0.9-1.8-1.9-2.8-2.8c-0.5-0.5-1.3-0.1-1.3,0.5c0,0.5,0.2,2.9-0.1,3.2
			c-0.8,0.7-1.9-0.4-2.6-0.8c-1.5-0.8-3.1-1.3-4.7-1.7c-0.9-0.2-1.3,1.2-0.4,1.4c1.6,0.4,3.2,1,4.7,1.8c0.8,0.5,1.9,1.4,2.9,1.3
			c2.3-0.1,1.6-3.9,1.7-5.2l-1.3,0.5c0.9,0.9,1.8,1.9,2.8,2.8C425.6,40.7,426.6,39.6,425.9,38.9"/>
		<path class="st1" d="M429.4,48.4c-0.9-0.2-1.5-0.2-2.3,0.1c-0.5,0.2-0.8,0.7-1.4,0.6c-0.2,0-0.3-0.3-0.5-0.4c-0.7-0.1-1,0-1.6,0.2
			c-1.5,0.5-2.9,0.8-4.4,0.7c-1,0-1,1.5,0,1.5c0.9,0,1.8,0,2.7-0.2c1-0.2,2.1-0.8,3.1-0.6c0.3,0.1,0.6,0.3,1,0.3
			c1.2,0,1.5-1.3,3.1-0.9C430,50,430.4,48.6,429.4,48.4"/>
		<path class="st1" d="M432.5,57.3c0-0.1-0.8,1.2-0.9,1.3c0,0.4-0.1,0.5-0.4,0.2c-0.2-0.2-0.4-0.3-0.6-0.5c-0.5-0.4-1-1-1.7-1
			c-0.4,0-0.6,0.3-0.9,0.3c-1.6,0.4-1.1-0.1-2.3-0.2c-1.5-0.2-2.5,1.9-3.9,1.7c-0.9-0.2-1.3,1.3-0.4,1.4c0.7,0.1,1,0.2,1.7-0.1
			c1.2-0.5,1.9-1.1,3.4-1.1c0.6,0,0.9,0.3,1.5,0.1c1-0.3,0.6-0.7,1.6,0c0.8,0.5,1.3,1.3,2.3,0.8c0.8-0.4,2-2,2-2.9
			C434,56.4,432.5,56.4,432.5,57.3"/>
		<path class="st1" d="M435.4,69.8c0.8,0,1.5,0,2.2-0.4c0.3-0.2,0.4-0.5,0.3-0.8c-0.4-1.5-3.2-2-4.4-2.2c-0.5-0.1-1.3-0.2-1.7,0.2
			c-0.6,0.6-0.2,3.2-2.1,1.7c-0.4-0.3-0.9-0.3-1.2,0.2l-1.7,0.7c-0.9-0.2-1.3,1.2-0.4,1.4c1.4,0.4,2.6-0.1,3.4-1.4
			c-0.4,0-0.8,0.1-1.2,0.2c1,0.7,2.2,1.6,3.4,0.8c0.6-0.4,0.5-0.8,0.8-1.4c0-0.2,0-0.4,0-0.7c0.4,0,0.7-0.1,1.1-0.1
			c0.5,0,2.5,0.6,2.6,1c0.1-0.3,0.2-0.6,0.3-0.8c-0.5,0.1-1,0.2-1.5,0.2C434.4,68.3,434.4,69.8,435.4,69.8"/>
		<line class="st0" x1="163.8" y1="35.8" x2="151.3" y2="25"/>
		<line class="st0" x1="167.9" y1="30.2" x2="159.7" y2="15.9"/>
		<path class="st0" d="M930.4,259c-0.6,0.5-1.1,1.1-1.5,1.8c-2.4,4.7-4,10.1-4.1,15.3c-0.1,3,0.3,6.1,1.4,8.9
			c1.2,3.1,3.1,5.2,5.5,7.5c3.3,3.1,6.8,5.9,10.5,8.5c6.1,4.2,12.1,8,19.3,6.5c4.7-0.9,10-3.6,15-9.7c4.9-6.1,6.4-11.9,6.3-16.7
			c-0.1-7.4-5-12.5-10.4-17.5c-3.3-3.1-6.8-5.9-10.5-8.5c-2.7-1.8-5.2-3.3-8.4-3.8c-3-0.5-6.1-0.3-9,0.5
			C939.4,253,934.5,255.6,930.4,259z"/>
		<line class="st0" x1="926.9" y1="265.5" x2="968" y2="259.6"/>
		<line class="st0" x1="925.1" y1="280.7" x2="981.2" y2="274.4"/>
		<line class="st0" x1="935.8" y1="295.2" x2="980.8" y2="290.6"/>
		<line class="st0" x1="972" y1="302.3" x2="968" y2="259.6"/>
		<line class="st0" x1="956.6" y1="307.6" x2="950" y2="251"/>
		<line class="st0" x1="939.7" y1="298.3" x2="935" y2="255.7"/>
		<path class="st0" d="M929.8,258.9c-2.9-4.3-3.2-9.8-2.1-14.7c0.5-2.5,1.3-5,2.6-7.3c5.6-10.3,4.2-1.9,3.9,0.1
			c-0.7,5,1.5,12.4,5.9,15.9"/>
		<path class="st0" d="M928.8,260.2c-4.8-1.9-10.2-1-14.8,1.1c-2.4,1.1-4.7,2.4-6.6,4c-8.9,7.6-1,4.5,0.9,3.8
			c4.7-1.7,12.4-1.2,16.8,2.5"/>
		<path class="st0" d="M910.9,262.5c-4.2-3.7-15.1,1.2-7.1-4.7c1.6-1.2,3.2-2.2,5-3.1c3.5-1.6,9.5-2.6,13.2-1.2
			c-2.2-3.3-2.5-9.3-1.7-13.1c0.4-1.9,1.1-3.8,1.9-5.5c4.1-9.1,1.6,2.6,6.1,5.9"/>
		<path class="st0" d="M909.7,254.1c0,0-6.8-3.6-11.8-4c-5-0.4,8.1-6.8,16.2-2.8c-5.6-7.1-1.9-21.5-0.5-16.7
			c1.4,4.8,6.4,10.7,6.4,10.7"/>
		<line class="st0" x1="914.1" y1="247.3" x2="929.2" y2="259.5"/>
		<line class="st0" x1="976.4" y1="235.3" x2="983.6" y2="220.4"/>
		<line class="st0" x1="982.8" y1="237.9" x2="994.5" y2="226.2"/>
		<path class="st0" d="M454.5,262.3c4.3-3.7,6.5-9.3,6.8-15"/>
		<path class="st0" d="M457.2,265.3c4.9-2.9,8.1-8,9.4-13.5"/>
		<path class="st0" d="M49.7,215.7c4.3-3.7,6.5-9.3,6.8-15"/>
		<path class="st0" d="M52.4,218.8c4.9-2.9,8.1-8,9.4-13.5"/>
		<path class="st0" d="M655.5,25.4c4.3-3.7,6.5-9.3,6.8-15"/>
		<path class="st0" d="M658.2,28.5c4.9-2.9,8.1-8,9.4-13.5"/>
		<path class="st0" d="M543.9,778.7h-95v-41.1c0-26.2,21.3-47.5,47.5-47.5h0c26.2,0,47.5,21.3,47.5,47.5V778.7z"/>
		<path class="st0" d="M448.9,660.9v4.9c0,6.9,5.6,12.5,12.5,12.5h70c6.9,0,12.5-5.6,12.5-12.5v-4.9H448.9z"/>
		<line class="st0" x1="492.7" y1="690" x2="492.7" y2="678.3"/>
		<line class="st0" x1="500.1" y1="690" x2="500.1" y2="678.3"/>
		<circle class="st0" cx="496.4" cy="734.9" r="32.2"/>
		<circle class="st0" cx="496.4" cy="734.9" r="5.4"/>
		<line class="st0" x1="496.4" y1="702.7" x2="496.4" y2="708.2"/>
		<line class="st0" x1="519.2" y1="712.1" x2="515.2" y2="716"/>
		<line class="st0" x1="528.6" y1="734.9" x2="523" y2="734.9"/>
		<line class="st0" x1="519.2" y1="757.6" x2="515.2" y2="753.7"/>
		<line class="st0" x1="496.4" y1="767" x2="496.4" y2="761.5"/>
		<line class="st0" x1="473.7" y1="757.6" x2="477.6" y2="753.7"/>
		<line class="st0" x1="464.2" y1="734.9" x2="469.8" y2="734.9"/>
		<line class="st0" x1="473.7" y1="712.1" x2="477.6" y2="716"/>
		<line class="st0" x1="498.7" y1="739.8" x2="505.1" y2="753.7"/>
		<line class="st0" x1="135.4" y1="374.2" x2="145.7" y2="384.5"/>
		<line class="st0" x1="145.7" y1="374.2" x2="135.4" y2="384.5"/>
		<line class="st0" x1="816.9" y1="357.3" x2="816.9" y2="372"/>
		<line class="st0" x1="824.2" y1="364.6" x2="809.6" y2="364.6"/>
		<line class="st0" x1="195.9" y1="172.4" x2="181.3" y2="172.4"/>
		<circle class="st0" cx="188.6" cy="166.4" r="2.1"/>
		<circle class="st0" cx="188.6" cy="178.2" r="2.1"/>
		<path class="st0" d="M704.9,151.2c1.3-3.7,5.3-5.7,9-4.4c5.3,1.8,6.7,8.4,1.9,12.2c-3.5,2.7-9.2,3.6-10,8.7"/>
		
			<ellipse transform="matrix(0.3269 -0.945 0.945 0.3269 307.2146 782.6533)" class="st0" cx="703.1" cy="175.6" rx="2.1" ry="2.1"/>
	</g>
	<g>
		<text transform="matrix(1 0 0 1 166.2811 548.3848)" class="st3 st4 st5 st6">JUICE PRODUCTION</text>
		<text transform="matrix(1 0 0 1 329.2218 628.3945)"><tspan x="0" y="0" class="st3 st4 st5 st7">I</tspan><tspan x="21.9" y="0" class="st3 st4 st5 st8">S A </tspan><tspan x="159.3" y="0" class="st3 st4 st5 st9">P</tspan><tspan x="202.3" y="0" class="st3 st4 st5 st7">A</tspan><tspan x="251.4" y="0" class="st3 st4 st5 st7">IN</tspan><tspan x="325.5" y="0" class="st3 st4 st5">!</tspan></text>
	</g>
</g>
</svg>
