<?xml version="1.0" encoding="utf-8"?>
<!-- Generator: Adobe Illustrator 20.0.0, SVG Export Plug-In . SVG Version: 6.00 Build 0)  -->
<svg version="1.1" id="Layer_1" xmlns="http://www.w3.org/2000/svg" xmlns:xlink="http://www.w3.org/1999/xlink" x="0px" y="0px"
	 viewBox="0 0 148.3 154.1" style="enable-background:new 0 0 148.3 154.1;" xml:space="preserve">
<style type="text/css">
	.st0{fill:none;stroke:#4D4D4D;stroke-width:2;stroke-linecap:round;stroke-linejoin:round;stroke-miterlimit:10;}
</style>
<g>
	<path class="st0" d="M121.7,135.9h-95V94.8c0-26.2,21.3-47.5,47.5-47.5h0c26.2,0,47.5,21.3,47.5,47.5V135.9z"/>
	<path class="st0" d="M26.7,18.2V23c0,6.9,5.6,12.5,12.5,12.5h70c6.9,0,12.5-5.6,12.5-12.5v-4.9H26.7z"/>
	<line class="st0" x1="70.5" y1="47.3" x2="70.5" y2="35.5"/>
	<line class="st0" x1="77.9" y1="47.3" x2="77.9" y2="35.5"/>
	<circle class="st0" cx="74.2" cy="92.1" r="32.2"/>
	<circle class="st0" cx="74.2" cy="92.1" r="5.4"/>
	<line class="st0" x1="74.2" y1="60" x2="74.2" y2="65.5"/>
	<line class="st0" x1="96.9" y1="69.4" x2="93" y2="73.3"/>
	<line class="st0" x1="106.3" y1="92.1" x2="100.8" y2="92.1"/>
	<line class="st0" x1="96.9" y1="114.9" x2="93" y2="111"/>
	<line class="st0" x1="74.2" y1="124.3" x2="74.2" y2="118.8"/>
	<line class="st0" x1="51.4" y1="114.9" x2="55.4" y2="111"/>
	<line class="st0" x1="42" y1="92.1" x2="47.6" y2="92.1"/>
	<line class="st0" x1="51.4" y1="69.4" x2="55.4" y2="73.3"/>
	<line class="st0" x1="76.4" y1="97" x2="82.9" y2="111"/>
</g>
</svg>
